<svg width="50" height="50" viewBox="0 0 50 50" fill="none" xmlns="http://www.w3.org/2000/svg">
<path d="M25 50C11.2832 50 0 38.7665 0 24.8899C0 11.0132 11.2832 0 25 0C38.7168 0 50 11.2335 50 24.8899C50 38.5463 38.9381 50 25 50ZM25 1.98238C12.3894 1.98238 1.99115 12.3348 1.99115 24.8899C1.99115 37.4449 12.3894 47.7974 25 47.7974C37.8319 47.7974 48.0088 37.4449 48.0088 24.8899C48.2301 12.3348 37.8319 1.98238 25 1.98238ZM29.2035 22.467L28.5398 24.8899H25.2212V35.9031H22.1239V24.8899H19.0265V22.467H22.1239C22.1239 22.467 22.1239 20.2643 22.1239 19.3833C22.1239 14.7577 26.5487 14.978 26.5487 14.978H28.7611V18.0617H26.5487C25.2212 18.0617 25.2212 19.3833 25.2212 19.3833V22.6872H29.2035V22.467Z" fill="#F2F1EC"/>
</svg>
