<svg width="32" height="32" viewBox="0 0 32 32" fill="none" xmlns="http://www.w3.org/2000/svg">
<circle cx="16" cy="16" r="16" fill="#F2F1EC"/>
<path fill-rule="evenodd" clip-rule="evenodd" d="M23.5506 23.5506C22.9513 24.1498 21.9925 24.1498 21.3933 23.5506L16 18.1573L10.6067 23.5506C10.0075 24.1498 9.04869 24.1498 8.44944 23.5506C7.85019 22.9513 7.85019 21.9925 8.44944 21.3933L13.8427 16L8.44944 10.6067C7.85019 10.0075 7.85019 9.04869 8.44944 8.44944C9.04869 7.85019 10.0075 7.85019 10.6067 8.44944L16 13.8427L21.3933 8.44944C21.9925 7.85019 22.9513 7.85019 23.5506 8.44944C24.1498 9.04869 24.1498 10.0075 23.5506 10.6067L18.1573 16L23.5506 21.3933C24.1498 21.9925 24.1498 22.9513 23.5506 23.5506Z" fill="#822791"/>
<path fill-rule="evenodd" clip-rule="evenodd" d="M23.5506 23.5506C22.9513 24.1498 21.9925 24.1498 21.3933 23.5506L16 18.1573L10.6067 23.5506C10.0075 24.1498 9.04869 24.1498 8.44944 23.5506C7.85019 22.9513 7.85019 21.9925 8.44944 21.3933L13.8427 16L8.44944 10.6067C7.85019 10.0075 7.85019 9.04869 8.44944 8.44944C9.04869 7.85019 10.0075 7.85019 10.6067 8.44944L16 13.8427L21.3933 8.44944C21.9925 7.85019 22.9513 7.85019 23.5506 8.44944C24.1498 9.04869 24.1498 10.0075 23.5506 10.6067L18.1573 16L23.5506 21.3933C24.1498 21.9925 24.1498 22.9513 23.5506 23.5506Z" fill="#822791"/>
</svg>
