<svg width="35" height="33" viewBox="0 0 35 33" fill="none" xmlns="http://www.w3.org/2000/svg">
<ellipse cx="17.15" cy="16.2916" rx="17.15" ry="16.2916" fill="#822791"/>
<path fill-rule="evenodd" clip-rule="evenodd" d="M23.5812 17.423H7.50312C6.85999 17.423 6.43124 16.9704 6.43124 16.2916C6.43124 15.6128 6.85999 15.1602 7.50312 15.1602H23.5812C24.2244 15.1602 24.6531 15.6128 24.6531 16.2916C24.6531 16.9704 24.2244 17.423 23.5812 17.423ZM26.7969 10.4085H7.50312C6.85999 10.4085 6.43124 9.95599 6.43124 9.27717C6.43124 8.59836 6.85999 8.14581 7.50312 8.14581H26.7969C27.44 8.14581 27.8687 8.59836 27.8687 9.27717C27.8687 9.95599 27.44 10.4085 26.7969 10.4085ZM7.50312 22.1747H26.7969C27.44 22.1747 27.8687 22.6272 27.8687 23.306C27.8687 23.9848 27.44 24.4374 26.7969 24.4374H7.50312C6.85999 24.4374 6.43124 23.9848 6.43124 23.306C6.43124 22.6272 6.85999 22.1747 7.50312 22.1747Z" fill="#F2F1EC"/>
</svg>
