<svg width="36" height="36" viewBox="0 0 36 36" fill="none" xmlns="http://www.w3.org/2000/svg">
<g filter="url(#filter0_d)">
<circle cx="18" cy="16" r="16" fill="#F2F1EC"/>
<path fill-rule="evenodd" clip-rule="evenodd" d="M25.5506 23.5506C24.9513 24.1498 23.9925 24.1498 23.3933 23.5506L18 18.1573L12.6067 23.5506C12.0075 24.1498 11.0487 24.1498 10.4494 23.5506C9.85019 22.9513 9.85019 21.9925 10.4494 21.3933L15.8427 16L10.4494 10.6067C9.85019 10.0075 9.85019 9.04869 10.4494 8.44944C11.0487 7.85019 12.0075 7.85019 12.6067 8.44944L18 13.8427L23.3933 8.44944C23.9925 7.85019 24.9513 7.85019 25.5506 8.44944C26.1498 9.04869 26.1498 10.0075 25.5506 10.6067L20.1573 16L25.5506 21.3933C26.1498 21.9925 26.1498 22.9513 25.5506 23.5506Z" fill="#822791"/>
<path fill-rule="evenodd" clip-rule="evenodd" d="M25.5506 23.5506C24.9513 24.1498 23.9925 24.1498 23.3933 23.5506L18 18.1573L12.6067 23.5506C12.0075 24.1498 11.0487 24.1498 10.4494 23.5506C9.85019 22.9513 9.85019 21.9925 10.4494 21.3933L15.8427 16L10.4494 10.6067C9.85019 10.0075 9.85019 9.04869 10.4494 8.44944C11.0487 7.85019 12.0075 7.85019 12.6067 8.44944L18 13.8427L23.3933 8.44944C23.9925 7.85019 24.9513 7.85019 25.5506 8.44944C26.1498 9.04869 26.1498 10.0075 25.5506 10.6067L20.1573 16L25.5506 21.3933C26.1498 21.9925 26.1498 22.9513 25.5506 23.5506Z" fill="#822791"/>
</g>
<defs>
<filter id="filter0_d" x="0" y="0" width="36" height="36" filterUnits="userSpaceOnUse" color-interpolation-filters="sRGB">
<feFlood flood-opacity="0" result="BackgroundImageFix"/>
<feColorMatrix in="SourceAlpha" type="matrix" values="0 0 0 0 0 0 0 0 0 0 0 0 0 0 0 0 0 0 127 0"/>
<feOffset dy="2"/>
<feGaussianBlur stdDeviation="1"/>
<feColorMatrix type="matrix" values="0 0 0 0 0 0 0 0 0 0 0 0 0 0 0 0 0 0 0.25 0"/>
<feBlend mode="normal" in2="BackgroundImageFix" result="effect1_dropShadow"/>
<feBlend mode="normal" in="SourceGraphic" in2="effect1_dropShadow" result="shape"/>
</filter>
</defs>
</svg>
