<?xml version="1.0" encoding="utf-8"?>
<!-- Generator: Adobe Illustrator 22.0.1, SVG Export Plug-In . SVG Version: 6.00 Build 0)  -->
<svg version="1.1" id="Layer_1" xmlns="http://www.w3.org/2000/svg" xmlns:xlink="http://www.w3.org/1999/xlink" x="0px" y="0px"
	 viewBox="0 0 517.2 100" style="enable-background:new 0 0 517.2 100;" xml:space="preserve">
<style type="text/css">
	.st0{fill:#DEBEDD;}
	.st1{fill:#92278F;}
</style>
<g>
	<g>
		<path class="st0" d="M83.9,40.1c0-3-2.4-5.4-5.4-5.4c-3,0-5.4,2.4-5.4,5.4c0,3,2.4,5.4,5.4,5.4C81.5,45.5,83.9,43.1,83.9,40.1z"/>
		<path class="st0" d="M117.2,62.9c-6,0-12.2,1.4-18.6,4.1c-4.6,2-9.1,4.6-13.5,7.8c-1.6,1.5-3.1,2.7-4.1,3.5c0.3,0,0.6,0,0.9,0
			c7.5,0,26.1-1.2,37.8-12.9c0.7-0.7,1.4-1.5,2.1-2.3C120.4,63,118.8,62.9,117.2,62.9z"/>
		<path class="st0" d="M58.4,67c-6.4-2.7-12.6-4.1-18.6-4.1c-1.5,0-3.1,0.1-4.7,0.3c0.7,0.8,1.4,1.6,2.1,2.3
			c5.9,5.8,13.5,9,20.5,10.8c7,1.8,13.6,2.1,17.3,2.1c0.3,0,0.6,0,0.9,0c-1-0.8-2.5-2-4.1-3.5C67.6,71.7,63,69,58.4,67z"/>
		<path class="st0" d="M55.8,34.4c-0.4,1.9-0.6,3.8-0.6,5.7c0,14.2,11.4,26.7,18.2,33c1.9,1.4,3.5,2.7,4.5,3.6
			C77.4,70.4,75,52,62.6,39.8C60.6,37.8,58.3,36,55.8,34.4z"/>
		<path class="st0" d="M101.9,40.1c0-1.9-0.2-3.8-0.6-5.7c-2.5,1.6-4.8,3.5-6.8,5.5C82.2,52,79.7,70.4,79.2,76.7
			c1-0.9,2.5-2.1,4.5-3.6C90.5,66.8,101.9,54.3,101.9,40.1z"/>
		<path class="st1" d="M156.8,78c-0.1-0.1-3.7-3.6-9.5-7.4c-5.2-3.4-13.2-7.7-22.4-9.3c3.2-4.6,7-12.2,8.6-23.6
			c1.1-7.5,0.7-13.3,0.7-13.3c0-0.3-0.2-0.5-0.5-0.5c0,0-1.1,0-2.9,0.1c-1.8,0.1-4.4,0.4-7.4,1c-5.3,1-12.9,3-20.1,7.1
			c-1.4-5.3-4.9-13.3-13.5-22.3C84.2,4,79.4,0.6,79.2,0.4c-0.6-0.5-0.6-0.5-1.3,0c-0.2,0.2-5,3.6-10.4,9.3
			C58.9,18.8,55.4,26.7,54,32c-7.1-4.1-14.8-6.1-20.1-7.1c-6-1.1-10.3-1.1-10.4-1.1c-0.3,0-0.5,0.2-0.5,0.5c0,0-0.4,5.8,0.7,13.3
			c1.6,11.5,5.4,19.1,8.6,23.6c-9.2,1.6-17.3,5.9-22.4,9.3c-5.9,3.8-9.4,7.2-9.5,7.4c-0.4,0.4-0.4,1.1,0,1.6
			c0.2,0.2,4.5,5.2,11.5,10.2c6.6,4.7,16.7,10.3,28,10.3c11.4,0,21.5-5.6,28-10.3c5.3-3.8,9-7.5,10.7-9.3c1.6,1.7,5.4,5.5,10.7,9.3
			c6.6,4.7,16.7,10.3,28,10.3s21.5-5.6,28-10.3c7-5.1,11.4-10,11.5-10.2C157.2,79.1,157.2,78.4,156.8,78z M103.3,33.1
			c6.8-3.9,14-6,19.8-7c4.9-0.9,9.4-0.7,9.4-0.7s0.6,6-0.2,12.1c-0.9,6.6-3.2,15.9-8.7,23.6c-2.1-0.3-4.3-0.5-6.4-0.5
			c-6.3,0-12.9,1.4-19.5,4.3c-1.9,0.8-3.7,1.7-5.6,2.7c1.8-2.1,3.6-4.5,5.3-7c4.5-7,6.8-13.9,6.8-20.6
			C104.1,37.8,103.9,35.5,103.3,33.1z M121.9,63.2c-0.7,0.8-1.4,1.6-2.1,2.3C108.1,77.1,89.4,78.4,82,78.4c-0.3,0-0.6,0-0.9,0
			c1-0.8,2.5-2,4.1-3.5c4.4-3.2,8.9-5.9,13.5-7.8c6.4-2.7,12.6-4.1,18.6-4.1C118.8,62.9,120.4,63,121.9,63.2z M24.7,37.5
			c-0.9-6.1-0.2-12.1-0.2-12.1s4.6-0.2,9.4,0.7c5.7,1.1,13,3.1,19.8,7c-0.5,2.3-0.8,4.7-0.8,7c0,6.7,2.3,13.6,6.8,20.6
			c1.6,2.5,3.4,4.9,5.3,7c-1.8-1-3.7-1.9-5.6-2.7c-6.7-2.8-13.2-4.3-19.5-4.3c-2.1,0-4.2,0.1-6.4,0.5C27.9,53.4,25.7,44.1,24.7,37.5
			z M71.9,74.8c1.6,1.5,3.1,2.7,4.1,3.5c-0.3,0-0.6,0-0.9,0c-3.7,0-10.3-0.3-17.3-2.1c-7-1.8-14.6-5-20.5-10.8
			c-0.7-0.7-1.4-1.5-2.1-2.3c1.6-0.2,3.1-0.3,4.7-0.3c6,0,12.3,1.4,18.6,4.1C63,69,67.6,71.7,71.9,74.8z M66.5,87.9
			c-6.3,4.5-15.9,9.8-26.7,9.8c-10.7,0-20.4-5.3-26.7-9.8c-0.7-0.5-1.3-1-2-1.4c-4.2-3.2-7.4-7.6-7.4-7.6s3.1-3.6,7.1-6.2
			c5.8-3.8,13.8-7.9,22.9-9.3h0c0.8,1,1.7,2,2.6,2.9c12,11.9,31,13.2,38.6,13.2c0.4,0,0.9,0,1.3,0C74.6,81.2,71.2,84.6,66.5,87.9z
			 M73.4,73c-6.8-6.2-18.2-18.8-18.2-33c0-1.9,0.2-3.8,0.6-5.7c2.5,1.6,4.8,3.5,6.8,5.5C75,52,77.4,70.4,77.9,76.7
			C76.8,75.7,75.4,74.5,73.4,73z M63.4,39.1c-2.1-2.1-4.6-4.1-7.3-5.8c1.2-5,4.5-12.9,13.1-21.9c4.1-4.3,9.4-7.4,9.4-7.4
			s5.1,2.9,9.1,7.1c5.3,5.6,11.2,13.4,13.4,22.2c-2.7,1.7-5.2,3.7-7.3,5.8c-10.6,10.5-14,25.4-15.1,33.6
			C77.4,64.4,74,49.6,63.4,39.1z M79.2,76.6c0.5-6.3,2.9-24.6,15.2-36.8c2-2,4.3-3.8,6.8-5.5c0.4,1.9,0.6,3.8,0.6,5.7
			c0,14.2-11.4,26.7-18.2,33C81.8,74.5,80.2,75.7,79.2,76.6z M145.8,86.5c-0.6,0.5-1.2,1-1.9,1.4c-6.3,4.5-15.9,9.8-26.7,9.8
			c-10.7,0-20.4-5.3-26.7-9.8c-4.7-3.3-8.1-6.7-9.9-8.5c0.4,0,0.8,0,1.2,0c3.8,0,10.5-0.3,17.7-2.1c7.2-1.8,14.9-5.1,20.9-11.1
			c0.9-0.9,1.8-1.9,2.6-2.9h0c9.3,1.4,17.5,5.7,22.7,9.1c4.1,2.7,7.3,6.4,7.3,6.4S150.3,83,145.8,86.5z"/>
		<path class="st1" d="M78.5,32.5c-4.2,0-7.6,3.4-7.6,7.6c0,4.2,3.4,7.6,7.6,7.6c4.2,0,7.6-3.4,7.6-7.6
			C86.1,35.9,82.7,32.5,78.5,32.5z M78.5,45.5c-3,0-5.4-2.4-5.4-5.4c0-3,2.4-5.4,5.4-5.4c3,0,5.4,2.4,5.4,5.4
			C83.9,43.1,81.5,45.5,78.5,45.5z"/>
	</g>
	<g>
		<path class="st1" d="M512,38.9c-3.4-3.6-9.2-5.7-16.8-5.7c-3.9,0-7.5,0.4-10.6,1v18.9h-5.5v2.4h5.5v19.8c3,0.3,6,0.4,9.2,0.4
			c7.9,0,14.3-2.3,17.9-6.3c3.7-4.1,5.5-9.7,5.5-15.7C517.2,46.9,515.4,42.3,512,38.9z M494.3,73.1c-2.7,0-5.1-0.1-6.7-0.3V55.4
			h12.8V53h-12.8V36.4c1.8-0.4,4.3-0.7,7.5-0.7c13.3,0,19.2,7.2,19.1,17.7C514.2,65.6,507.6,73.1,494.3,73.1z"/>
		<rect x="469" y="33.7" class="st1" width="3" height="41.5"/>
		<path class="st1" d="M450.6,55.2L450.6,55.2c4.8-1.7,8.1-5.4,8.1-10.9c0-2.9-1.1-5.7-2.9-7.4c-2.3-2.3-5.7-3.4-11.2-3.4
			c-2.9,0-6.4,0.3-9,0.9v40.9h3v-19h6.4c5.5,0.3,8,3,9.4,8.9c1.1,5.3,2,8.8,2.7,10.1h3c-0.9-1.6-1.6-4.7-3.1-11.2
			C455.9,59.4,453.8,56.2,450.6,55.2z M438.5,53.6V36.3c1.1-0.3,3.2-0.6,5.9-0.6c6.5,0,11.2,2.6,11.2,8.9c0,5.5-4.2,9-10.5,9H438.5z
			"/>
		<polygon class="st1" points="398.9,36.2 412.4,36.2 412.4,75.2 415.3,75.2 415.3,36.2 428.9,36.2 428.9,33.7 398.9,33.7 		"/>
		<polygon class="st1" points="375,54.5 391.6,54.5 391.6,52.1 375,52.1 375,36.2 392.5,36.2 392.5,33.7 372,33.7 372,75.2 
			393.5,75.2 393.5,72.7 375,72.7 		"/>
		<path class="st1" d="M351.3,52.3c-5.9-2.3-8.6-4.7-8.6-9.2c0-3.3,2.3-7.6,9-7.6c3.5,0,6.2,1.1,7.3,2l1.1-2.5
			c-1.4-1-4.4-1.9-8.2-1.9c-7.1,0-12.1,4.4-12.1,10.5c0,5.6,4,9,10.6,11.4c6,2.3,8.4,5.1,8.4,9.7c0,5.1-3.8,8.6-10.1,8.6
			c-3.4,0-6.7-1.1-9-2.7l-1.1,2.4c2.2,1.6,6.3,2.8,9.9,2.8c8.8,0,13.1-5.4,13.1-11.4C361.7,58.2,358.2,55.1,351.3,52.3z"/>
		<path class="st1" d="M311.6,33.7l-14.1,41.5h5.6l4.3-13h14.7l4.4,13h5.7l-14.1-41.5H311.6z M308.5,58L308.5,58l4-12.1
			c0.8-2.5,1.4-5.1,2-7.5h0.2c0.6,2.4,1.2,4.9,2.1,7.6l4.1,12H308.5z"/>
		<path class="st1" d="M276.5,57.7h8.3V70c-1.2,0.6-3.6,1.1-7.2,1.1c-9.7,0-16-6.2-16-16.8c0-10.3,6.6-16.7,16.7-16.7
			c4.2,0,7,0.8,9.2,1.8l1.3-4.4c-1.8-0.9-5.6-1.9-10.4-1.9c-13.9,0-22.4,9-22.4,21.4c0,6.4,2.2,12,5.7,15.4c4,3.8,9.2,5.5,15.5,5.5
			c5.6,0,10.4-1.3,12.8-2.3V53.4h-13.6V57.7z"/>
		<path class="st1" d="M230.4,33.1c-11.1,0-19.2,8.6-19.2,21.7c0,12.5,7.7,21.1,18.7,21.1h0.1c10.5,0,19.2-7.7,19.2-21.8
			C249.1,41.7,241.8,33.1,230.4,33.1z M230.2,71.5c-8.5,0-13.3-8-13.3-16.8c0-9,4.4-17.2,13.3-17.2s13.2,8.6,13.2,16.9
			C243.4,63.7,238.7,71.5,230.2,71.5z"/>
		<polygon class="st1" points="239.2,24.1 232.7,24.1 227,31.3 231.4,31.3 		"/>
		<path class="st1" d="M196.9,61c0,8.1-2.8,10.2-7.6,10.2c-1.8,0-3.4-0.4-4.6-0.8l-0.7,4.3c1.2,0.6,3.7,1,5.7,1
			c7.1,0,12.5-3.4,12.5-14.4V33.6h-5.5V61z"/>
	</g>
</g>
</svg>
