<svg width="150" height="122" viewBox="0 0 150 122" fill="none" xmlns="http://www.w3.org/2000/svg">
<path d="M143.964 67.5041C143.834 67.3752 140.773 64.4089 135.686 61.0987C131.158 58.1754 124.217 54.4353 116.197 53.0597C119 49.0617 122.276 42.5273 123.699 32.5967C124.648 26.0623 124.303 21.1186 124.303 21.0756C124.303 20.8176 124.087 20.6457 123.829 20.6457C123.829 20.6457 122.88 20.6457 121.285 20.7746C119.69 20.9036 117.448 21.1615 114.817 21.6344C110.247 22.4942 103.607 24.2138 97.3555 27.7819C96.1483 23.182 93.0871 16.3037 85.628 8.43667C80.9284 3.4499 76.7893 0.52662 76.6168 0.354663C76.0563 -0.118221 76.0563 -0.118221 75.4527 0.354663C75.2802 0.52662 71.098 3.4499 66.3984 8.39368C58.9393 16.2607 55.9212 23.1391 54.6708 27.7389C48.4622 24.1708 41.8223 22.4512 37.2521 21.5914C32.035 20.6457 28.284 20.6027 28.2408 20.6027C27.9821 20.6027 27.7666 20.7746 27.7666 21.0326C27.7666 21.0756 27.4216 26.0623 28.3702 32.5537C29.793 42.4843 33.0698 49.0617 35.8723 53.0167C27.8528 54.4353 20.868 58.1324 16.384 61.0557C11.2963 64.3659 8.23509 67.3322 8.10574 67.4611C7.7177 67.848 7.7177 68.4499 8.06263 68.8368C8.23509 69.0088 11.9862 73.3507 18.0655 77.6926C23.7568 81.7766 32.5524 86.5914 42.426 86.5914C52.2995 86.5914 61.0951 81.7336 66.7864 77.6926C71.3567 74.4254 74.6335 71.1582 76.0563 69.6536C77.4791 71.1582 80.7128 74.3824 85.3262 77.6926C91.0175 81.7766 99.8131 86.5914 109.687 86.5914C119.56 86.5914 128.356 81.7336 134.047 77.6926C140.17 73.3077 143.921 69.0088 144.05 68.8368C144.352 68.4929 144.352 67.891 143.964 67.5041ZM97.5711 28.6847C103.435 25.2885 109.773 23.526 114.731 22.5802C118.957 21.8064 122.923 21.9783 122.923 21.9783C122.923 21.9783 123.484 27.1371 122.751 32.4678C121.932 38.1853 119.948 46.2674 115.162 52.8877C113.308 52.6298 111.454 52.4578 109.644 52.4578C104.168 52.4578 98.4765 53.7045 92.699 56.1549C91.0606 56.8428 89.4653 57.6596 87.8269 58.5193C89.3791 56.7138 90.9744 54.6503 92.3972 52.4578C96.2776 46.3963 98.261 40.4208 98.261 34.6602C98.261 32.7257 98.0454 30.7052 97.5711 28.6847ZM113.696 54.7363C113.093 55.4241 112.489 56.1119 111.886 56.7138C101.71 66.7733 85.4987 67.848 79.0313 67.848C78.7295 67.848 78.4708 67.848 78.2121 67.848C79.1175 67.1172 80.3679 66.0855 81.7907 64.7958C85.5849 62.0015 89.5516 59.723 93.5182 58.0465C99.037 55.682 104.47 54.4783 109.644 54.4783C110.98 54.4783 112.36 54.5643 113.696 54.7363ZM29.2756 32.4678C28.4995 27.1801 29.1032 21.9783 29.1032 21.9783C29.1032 21.9783 33.0698 21.7634 37.2952 22.5802C42.2535 23.526 48.5915 25.2885 54.4553 28.6847C53.981 30.7052 53.7654 32.7257 53.7654 34.7032C53.7654 40.4638 55.7487 46.4393 59.6292 52.5008C61.052 54.6933 62.6042 56.7568 64.1994 58.5623C62.6042 57.7025 60.9658 56.8857 59.3274 56.1979C53.5498 53.7475 47.8585 52.5008 42.3828 52.5008C40.572 52.5008 38.718 52.6298 36.864 52.9307C32.0781 46.2674 30.0948 38.1853 29.2756 32.4678ZM70.2788 64.7958C71.7016 66.0855 72.952 67.1172 73.8574 67.848C73.5987 67.848 73.34 67.848 73.0382 67.848C69.8045 67.848 64.1132 67.5901 57.9908 66.0425C51.8683 64.4949 45.2716 61.7435 40.1839 56.7138C39.5372 56.1119 38.9336 55.4241 38.3731 54.7363C39.7528 54.5643 41.0894 54.4783 42.426 54.4783C47.643 54.4783 53.0756 55.682 58.5513 58.0465C62.5611 59.766 66.4846 62.0445 70.2788 64.7958ZM65.5792 76.145C60.1466 80.014 51.739 84.6569 42.3828 84.6569C33.0698 84.6569 24.6622 80.057 19.2296 76.145C18.626 75.7151 18.0655 75.2852 17.505 74.8983C13.8833 72.147 11.0807 68.2779 11.0807 68.2779C11.0807 68.2779 13.797 65.1397 17.2463 62.9043C22.2477 59.6371 29.2325 56.026 37.1227 54.8652H37.1658C37.8988 55.768 38.6318 56.5848 39.451 57.3586C49.885 67.6761 66.3984 68.7508 72.9951 68.7508C73.3831 68.7508 73.7712 68.7508 74.1161 68.7508C72.607 70.3414 69.632 73.2217 65.5792 76.145ZM71.5723 63.2482C65.6654 57.8745 55.7919 46.9982 55.7919 34.7032C55.7919 33.0696 55.9643 31.436 56.3093 29.8024C58.465 31.2211 60.4484 32.8117 62.2161 34.5312C72.9089 45.0637 75.0215 60.9697 75.4527 66.3864C74.5472 65.5696 73.2538 64.4949 71.5723 63.2482ZM62.8629 33.8434C61.0089 31.9949 58.8531 30.3183 56.5248 28.8137C57.5596 24.4717 60.4053 17.6794 67.8643 9.81233C71.3998 6.07225 76.0132 3.36392 76.0132 3.36392C76.0132 3.36392 80.4541 5.9003 83.9034 9.5544C88.5168 14.3692 93.6476 21.1615 95.5015 28.8137C93.1733 30.3183 91.0175 31.9949 89.1635 33.8434C79.9798 42.9142 76.9617 55.811 76.0132 62.9472C75.0646 55.768 72.0465 42.9142 62.8629 33.8434ZM76.6168 66.3434C77.048 60.9267 79.1606 45.0207 89.8534 34.4883C91.578 32.7687 93.5613 31.1781 95.7602 29.7594C96.1052 31.436 96.2776 33.0696 96.2776 34.6602C96.2776 46.9552 86.4041 57.7885 80.4972 63.2052C78.8157 64.4949 77.4791 65.5696 76.6168 66.3434ZM134.478 74.8983C133.918 75.3282 133.4 75.7581 132.84 76.145C127.407 80.014 119 84.6569 109.644 84.6569C100.331 84.6569 91.9229 80.057 86.4903 76.145C82.4374 73.2647 79.4193 70.3414 77.9103 68.7508C78.2552 68.7508 78.6001 68.7508 78.9882 68.7508C82.3081 68.7508 88.0856 68.4929 94.3374 66.9023C100.589 65.3547 107.315 62.4744 112.532 57.3156C113.308 56.5418 114.084 55.682 114.817 54.8223H114.861C122.923 56.026 130.037 59.766 134.565 62.6893C138.1 65.0107 140.903 68.2349 140.903 68.2349C140.903 68.2349 138.359 71.8461 134.478 74.8983Z" fill="#F2F1EC"/>
<path d="M76.0132 28.126C72.3914 28.126 69.4164 31.0922 69.4164 34.7034C69.4164 38.3145 72.3914 41.2807 76.0132 41.2807C79.6349 41.2807 82.6099 38.3145 82.6099 34.7034C82.6099 31.0922 79.678 28.126 76.0132 28.126ZM76.0132 39.3892C73.4262 39.3892 71.3135 37.2827 71.3135 34.7034C71.3135 32.124 73.4262 30.0175 76.0132 30.0175C78.6001 30.0175 80.7128 32.124 80.7128 34.7034C80.7128 37.2827 78.6001 39.3892 76.0132 39.3892Z" fill="#F2F1EC"/>
<path d="M147.672 105.292C146.12 103.658 143.533 102.755 140.127 102.755C138.359 102.755 136.763 102.927 135.341 103.185V111.654H132.883V112.729H135.341V121.628C136.677 121.757 138.057 121.8 139.48 121.8C143.058 121.8 145.904 120.768 147.542 118.962C149.224 117.114 150 114.62 150 111.912C150 108.903 149.181 106.839 147.672 105.292ZM139.695 120.639C138.488 120.639 137.41 120.596 136.677 120.51V112.686H142.455V111.611H136.677V104.174C137.496 104.002 138.617 103.873 140.04 103.873C146.033 103.873 148.663 107.097 148.62 111.826C148.663 117.286 145.688 120.639 139.695 120.639Z" fill="#F2F1EC"/>
<path d="M129.649 102.97H128.313V121.584H129.649V102.97Z" fill="#F2F1EC"/>
<path d="M119.991 112.599V112.556C122.147 111.826 123.656 110.192 123.656 107.699C123.656 106.409 123.139 105.162 122.363 104.388C121.328 103.357 119.776 102.841 117.318 102.841C116.025 102.841 114.43 102.97 113.265 103.228V121.584H114.602V113.072H117.491C119.948 113.201 121.112 114.405 121.716 117.07C122.233 119.435 122.622 121.025 122.923 121.584H124.26C123.872 120.853 123.527 119.478 122.88 116.554C122.406 114.491 121.457 113.072 119.991 112.599ZM114.559 111.955V104.131C115.033 104.002 115.982 103.873 117.232 103.873C120.164 103.873 122.277 105.033 122.277 107.871C122.277 110.321 120.379 111.912 117.534 111.912H114.559V111.955Z" fill="#F2F1EC"/>
<path d="M96.7088 104.087H102.788V121.584H104.125V104.087H110.247V102.97H96.7088V104.087Z" fill="#F2F1EC"/>
<path d="M85.9729 112.298H93.432V111.224H85.9729V104.087H93.8631V102.97H84.6364V121.584H94.2943V120.466H85.9729V112.298Z" fill="#F2F1EC"/>
<path d="M75.2804 111.31C72.6072 110.278 71.4 109.203 71.4 107.183C71.4 105.721 72.4348 103.787 75.4529 103.787C77.0482 103.787 78.2554 104.303 78.7297 104.689L79.2471 103.572C78.6003 103.142 77.2637 102.712 75.5391 102.712C72.3485 102.712 70.1065 104.689 70.1065 107.441C70.1065 109.934 71.9174 111.482 74.8924 112.556C77.6087 113.588 78.6866 114.835 78.6866 116.898C78.6866 119.177 76.9619 120.767 74.1594 120.767C72.6072 120.767 71.1413 120.252 70.1065 119.564L69.5891 120.639C70.5808 121.369 72.4348 121.885 74.03 121.885C77.9967 121.885 79.9369 119.478 79.9369 116.769C79.98 113.975 78.3848 112.556 75.2804 111.31Z" fill="#F2F1EC"/>
<path d="M57.4304 102.97L51.0924 121.584H53.5931L55.5333 115.738H62.1301L64.1134 121.584H66.7003L60.3623 102.97H57.4304ZM56.0076 113.846L57.8185 108.472C58.1634 107.355 58.4652 106.194 58.7239 105.119H58.8101C59.0688 106.194 59.3706 107.312 59.7587 108.515L61.6127 113.889H56.0076V113.846Z" fill="#F2F1EC"/>
<path d="M41.6067 113.717H45.3578V119.263C44.7972 119.521 43.7194 119.779 42.1241 119.779C37.7694 119.779 34.9237 116.984 34.9237 112.256C34.9237 107.613 37.8987 104.775 42.4259 104.775C44.323 104.775 45.5733 105.119 46.565 105.592L47.1686 103.615C46.3494 103.228 44.6679 102.755 42.469 102.755C36.2172 102.755 32.3799 106.796 32.3799 112.342C32.3799 115.222 33.3715 117.715 34.9668 119.263C36.7777 120.982 39.106 121.713 41.9516 121.713C44.4523 121.713 46.6512 121.111 47.7291 120.681V111.783H41.6067V113.717Z" fill="#F2F1EC"/>
<path d="M20.8682 102.669C15.8667 102.669 12.245 106.538 12.245 112.428C12.245 118.059 15.6943 121.885 20.6526 121.885H20.6957C25.4384 121.885 29.3189 118.446 29.3189 112.084C29.2758 106.538 25.9989 102.669 20.8682 102.669ZM20.7819 119.908C16.9446 119.908 14.7888 116.297 14.7888 112.385C14.7888 108.344 16.7722 104.647 20.7819 104.647C24.7917 104.647 26.7319 108.516 26.7319 112.213C26.7319 116.426 24.5761 119.908 20.7819 119.908Z" fill="#F2F1EC"/>
<path d="M24.8348 98.6709H21.9029L19.316 101.895H21.2993L24.8348 98.6709Z" fill="#F2F1EC"/>
<path d="M5.77752 115.222C5.77752 118.876 4.52716 119.822 2.37137 119.822C1.55217 119.822 0.819201 119.65 0.301811 119.478L0 121.413C0.560506 121.671 1.68152 121.843 2.58695 121.843C5.77752 121.843 8.23513 120.338 8.23513 115.394V102.927H5.77752V115.222Z" fill="#F2F1EC"/>
</svg>
