<svg width="99" height="80" viewBox="0 0 99 80" fill="none" xmlns="http://www.w3.org/2000/svg">
<path d="M52.8164 22.7774C52.8164 21.0844 51.4339 19.7018 49.7411 19.7018C48.0482 19.7018 46.6658 21.0844 46.6658 22.7774C46.6658 24.4704 48.0482 25.853 49.7411 25.853C51.4339 25.853 52.8164 24.4704 52.8164 22.7774Z" fill="#DEBEDD"/>
<path d="M71.7475 35.7569C68.3336 35.7569 64.8069 36.547 61.1956 38.0988C58.5717 39.2275 56.0042 40.7229 53.5214 42.5288C52.5904 43.3753 51.7722 44.0524 51.1797 44.5321C51.349 44.5321 51.5183 44.5321 51.7158 44.5321C55.976 44.5321 66.5562 43.8267 73.2146 37.2241C73.6378 36.8291 74.0328 36.3777 74.3996 35.9262C73.5249 35.8133 72.6221 35.7569 71.7475 35.7569Z" fill="#DEBEDD"/>
<path d="M38.3144 38.0988C34.703 36.547 31.1481 35.7569 27.7624 35.7569C26.8878 35.7569 25.985 35.8133 25.1104 35.9262C25.5053 36.3777 25.9003 36.8291 26.2953 37.2241C29.6245 40.5254 33.9412 42.3595 37.9476 43.347C41.9539 44.3628 45.6781 44.5321 47.7942 44.5321C47.9917 44.5321 48.1609 44.5321 48.3302 44.5321C47.7377 44.0524 46.9195 43.3753 45.9885 42.5288C43.5057 40.7229 40.9382 39.2275 38.3144 38.0988Z" fill="#DEBEDD"/>
<path d="M36.8474 19.5608C36.6216 20.633 36.5088 21.7334 36.5088 22.7774C36.5088 30.8473 42.9697 37.9577 46.835 41.513C47.9353 42.3312 48.81 43.0366 49.3742 43.5445C49.0921 39.9893 47.7096 29.5775 40.7126 22.6364C39.5559 21.5077 38.258 20.4637 36.8474 19.5608Z" fill="#DEBEDD"/>
<path d="M63.0014 22.7774C63.0014 21.7052 62.8886 20.633 62.6629 19.5608C61.2522 20.4919 59.9544 21.5359 58.7976 22.6646C51.8006 29.5775 50.4181 40.0175 50.136 43.5727C50.7003 43.0649 51.5749 42.3595 52.6752 41.5412C56.5405 37.9859 63.0014 30.8473 63.0014 22.7774Z" fill="#DEBEDD"/>
<path d="M94.2056 44.3064C94.121 44.2218 92.1178 42.2749 88.7886 40.1022C85.8261 38.1835 81.2837 35.7287 76.036 34.8258C77.8699 32.2017 80.0141 27.9128 80.9452 21.3949C81.5659 17.1061 81.3401 13.8612 81.3401 13.833C81.3401 13.6637 81.1991 13.5508 81.0298 13.5508C81.0298 13.5508 80.4091 13.5508 79.3652 13.6355C78.3213 13.7201 76.8542 13.8894 75.1331 14.1998C72.1425 14.7641 67.7976 15.8928 63.7066 18.2347C62.9166 15.2156 60.9134 10.701 56.0325 5.53742C52.9572 2.26435 50.2486 0.345648 50.1358 0.232783C49.769 -0.0775945 49.769 -0.0775945 49.374 0.232783C49.2612 0.345648 46.5244 2.26435 43.4492 5.50921C38.5682 10.6728 36.5932 15.1874 35.775 18.2065C31.7123 15.8645 27.3673 14.7359 24.3767 14.1716C20.9628 13.5508 18.5082 13.5226 18.48 13.5226C18.3107 13.5226 18.1697 13.6355 18.1697 13.8048C18.1697 13.833 17.944 17.1061 18.5647 21.3667C19.4957 27.8846 21.64 32.2017 23.4739 34.7976C18.2261 35.7287 13.6555 38.1553 10.7213 40.074C7.39205 42.2467 5.38887 44.1936 5.30423 44.2782C5.05031 44.5322 5.05031 44.9272 5.27602 45.1811C5.38887 45.294 7.84347 48.1438 11.8216 50.9937C15.5458 53.6742 21.3014 56.8344 27.7623 56.8344C34.2233 56.8344 39.9789 53.646 43.7031 50.9937C46.6937 48.8492 48.838 46.7048 49.769 45.7172C50.7001 46.7048 52.8161 48.821 55.835 50.9937C59.5592 53.6742 65.3148 56.8344 71.7757 56.8344C78.2366 56.8344 83.9922 53.646 87.7164 50.9937C91.7228 48.1156 94.1774 45.294 94.262 45.1811C94.4595 44.9554 94.4595 44.5604 94.2056 44.3064ZM63.8477 18.8272C67.6847 16.5982 71.8321 15.4413 75.0767 14.8205C77.8417 14.3126 80.4373 14.4255 80.4373 14.4255C80.4373 14.4255 80.8041 17.8115 80.3245 21.3103C79.7884 25.063 78.4906 30.3676 75.3588 34.7129C74.1457 34.5436 72.9325 34.4308 71.7475 34.4308C68.1644 34.4308 64.4401 35.249 60.6595 36.8574C59.5874 37.3088 58.5435 37.8449 57.4714 38.4093C58.4871 37.2242 59.531 35.8698 60.462 34.4308C63.0012 30.4523 64.2991 26.5302 64.2991 22.7493C64.2991 21.4796 64.158 20.1534 63.8477 18.8272ZM74.3996 35.9262C74.0046 36.3777 73.6096 36.8291 73.2146 37.2242C66.5562 43.8268 55.9478 44.5322 51.7158 44.5322C51.5183 44.5322 51.349 44.5322 51.1797 44.5322C51.7722 44.0525 52.5904 43.3753 53.5214 42.5288C56.0042 40.6948 58.5999 39.1993 61.1956 38.0989C64.8069 36.547 68.3618 35.7569 71.7475 35.7569C72.6221 35.7569 73.525 35.8134 74.3996 35.9262ZM19.1572 21.3103C18.6493 17.8397 19.0443 14.4255 19.0443 14.4255C19.0443 14.4255 21.64 14.2844 24.4049 14.8205C27.6495 15.4413 31.7969 16.5982 35.634 18.8272C35.3236 20.1534 35.1825 21.4796 35.1825 22.7775C35.1825 26.5585 36.4804 30.4805 39.0196 34.459C39.9507 35.898 40.9663 37.2524 42.0103 38.4375C40.9663 37.8731 39.8942 37.337 38.8221 36.8856C35.0415 35.2773 31.3173 34.459 27.7341 34.459C26.5491 34.459 25.336 34.5436 24.1228 34.7412C20.991 30.3676 19.6932 25.063 19.1572 21.3103ZM45.9884 42.5288C46.9194 43.3753 47.7376 44.0525 48.3301 44.5322C48.1608 44.5322 47.9916 44.5322 47.7941 44.5322C45.678 44.5322 41.9538 44.3629 37.9475 43.3471C33.9411 42.3313 29.6244 40.5255 26.2952 37.2242C25.872 36.8291 25.477 36.3777 25.1102 35.9262C26.0131 35.8134 26.8877 35.7569 27.7623 35.7569C31.1762 35.7569 34.7311 36.547 38.3143 38.0989C40.9381 39.2275 43.5056 40.723 45.9884 42.5288ZM42.9131 49.9779C39.3582 52.5173 33.8565 55.5647 27.7341 55.5647C21.64 55.5647 16.1383 52.5456 12.5834 49.9779C12.1884 49.6957 11.8216 49.4136 11.4548 49.1596C9.08487 47.3538 7.25098 44.8143 7.25098 44.8143C7.25098 44.8143 9.02844 42.7545 11.2855 41.2873C14.5583 39.1429 19.1289 36.7727 24.2921 36.0109H24.3203C24.7999 36.6034 25.2795 37.1395 25.8156 37.6474C32.6433 44.4193 43.4492 45.1247 47.7658 45.1247C48.0198 45.1247 48.2737 45.1247 48.4994 45.1247C47.5119 46.1687 45.5652 48.0592 42.9131 49.9779ZM46.8348 41.513C42.9695 37.986 36.5086 30.8473 36.5086 22.7775C36.5086 21.7053 36.6214 20.6331 36.8471 19.5609C38.2578 20.492 39.5557 21.536 40.7124 22.6646C47.7094 29.5776 49.0919 40.0176 49.374 43.5728C48.7815 43.0367 47.9351 42.3313 46.8348 41.513ZM41.1356 22.2132C39.9224 20.9999 38.5118 19.8995 36.9882 18.9119C37.6653 16.0621 39.5274 11.6039 44.4084 6.44034C46.7219 3.98553 49.7408 2.20791 49.7408 2.20791C49.7408 2.20791 52.6468 3.87267 54.9039 6.27104C57.9228 9.43125 61.2802 13.8894 62.4934 18.9119C60.9699 19.8995 59.5592 20.9999 58.346 22.2132C52.3365 28.1668 50.3615 36.6316 49.7408 41.3155C49.1201 36.6034 47.1451 28.1668 41.1356 22.2132ZM50.1358 43.5446C50.4179 39.9894 51.8004 29.5494 58.7974 22.6364C59.9259 21.5078 61.2238 20.4638 62.6627 19.5326C62.8884 20.6331 63.0012 21.7053 63.0012 22.7493C63.0012 30.8191 56.5403 37.9296 52.675 41.4848C51.5747 42.3313 50.7001 43.0367 50.1358 43.5446ZM87.9986 49.1596C87.6318 49.4418 87.2932 49.7239 86.9265 49.9779C83.3715 52.5173 77.8699 55.5647 71.7475 55.5647C65.6533 55.5647 60.1517 52.5456 56.5967 49.9779C53.9446 48.0874 51.9697 46.1687 50.9822 45.1247C51.2079 45.1247 51.4336 45.1247 51.6875 45.1247C53.86 45.1247 57.6406 44.9554 61.7316 43.9114C65.8226 42.8956 70.2239 41.0051 73.6378 37.6192C74.1457 37.1113 74.6535 36.547 75.1331 35.9827H75.1613C80.4373 36.7727 85.0926 39.2275 88.055 41.1462C90.3685 42.6699 92.2024 44.7861 92.2024 44.7861C92.2024 44.7861 90.5378 47.1563 87.9986 49.1596Z" fill="#92278F"/>
<path d="M49.7408 18.4604C47.3708 18.4604 45.4241 20.4074 45.4241 22.7775C45.4241 25.1477 47.3708 27.0946 49.7408 27.0946C52.1107 27.0946 54.0575 25.1477 54.0575 22.7775C54.0575 20.4074 52.1389 18.4604 49.7408 18.4604ZM49.7408 25.8531C48.0479 25.8531 46.6655 24.4705 46.6655 22.7775C46.6655 21.0846 48.0479 19.702 49.7408 19.702C51.4336 19.702 52.8161 21.0846 52.8161 22.7775C52.8161 24.4705 51.4336 25.8531 49.7408 25.8531Z" fill="#92278F"/>
<path d="M96.6319 69.1086C95.6162 68.0364 93.9234 67.4438 91.6945 67.4438C90.5377 67.4438 89.4938 67.5567 88.5628 67.726V73.2846H86.9546V73.99H88.5628V79.8307C89.4374 79.9154 90.3402 79.9436 91.2713 79.9436C93.613 79.9436 95.4751 79.2664 96.5472 78.0813C97.6476 76.8681 98.1554 75.2315 98.1554 73.4539C98.1554 71.4788 97.6194 70.1244 96.6319 69.1086ZM91.4124 79.1818C90.6224 79.1818 89.917 79.1536 89.4374 79.0971V73.9618H93.218V73.2564H89.4374V68.375C89.9735 68.2621 90.707 68.1775 91.6381 68.1775C95.5598 68.1775 97.2808 70.2937 97.2526 73.3975C97.2808 76.9809 95.3341 79.1818 91.4124 79.1818Z" fill="#92278F"/>
<path d="M84.8387 67.5849H83.9641V79.8025H84.8387V67.5849Z" fill="#92278F"/>
<path d="M78.5188 73.9053V73.8771C79.9295 73.3974 80.9169 72.3252 80.9169 70.6887C80.9169 69.8422 80.5784 69.0239 80.0705 68.516C79.3934 67.8388 78.3777 67.5002 76.7695 67.5002C75.9231 67.5002 74.8792 67.5849 74.1174 67.7542V79.8025H74.992V74.2157H76.8824C78.4906 74.3003 79.2523 75.0904 79.6473 76.8398C79.9859 78.3917 80.2398 79.4357 80.4373 79.8025H81.3119C81.058 79.3228 80.8323 78.4199 80.4091 76.5012C80.0987 75.1468 79.478 74.2157 78.5188 73.9053ZM74.9638 73.4821V68.3467C75.2742 68.2621 75.8949 68.1774 76.7131 68.1774C78.6316 68.1774 80.0141 68.9393 80.0141 70.8015C80.0141 72.4099 78.7727 73.4538 76.9106 73.4538H74.9638V73.4821Z" fill="#92278F"/>
<path d="M63.2832 68.3185H67.2613V79.8025H68.136V68.3185H72.1423V67.5849H63.2832V68.3185Z" fill="#92278F"/>
<path d="M56.2582 73.7078H61.1391V73.0024H56.2582V68.3185H61.4213V67.5849H55.3835V79.8025H61.7034V79.0689H56.2582V73.7078Z" fill="#92278F"/>
<path d="M49.2611 73.0588C47.5118 72.3816 46.7218 71.6762 46.7218 70.3501C46.7218 69.3907 47.399 68.121 49.3739 68.121C50.4178 68.121 51.2078 68.4596 51.5182 68.7135L51.8567 67.9799C51.4335 67.6978 50.5589 67.4156 49.4304 67.4156C47.3425 67.4156 45.8754 68.7135 45.8754 70.5194C45.8754 72.1559 47.0604 73.1717 49.0071 73.8771C50.7846 74.5543 51.49 75.3725 51.49 76.7269C51.49 78.2224 50.3614 79.2664 48.5275 79.2664C47.5118 79.2664 46.5526 78.9278 45.8754 78.4763L45.5369 79.1817C46.1858 79.6614 47.399 80 48.4429 80C51.0385 80 52.3081 78.4199 52.3081 76.6423C52.3364 74.8082 51.2925 73.8771 49.2611 73.0588Z" fill="#92278F"/>
<path d="M37.5808 67.5849L33.4333 79.8025H35.0697L36.3394 75.9651H40.6561L41.9539 79.8025H43.6467L39.4993 67.5849H37.5808ZM36.6497 74.7236L37.8347 71.1966C38.0604 70.4629 38.2579 69.7011 38.4272 68.9957H38.4836C38.6529 69.7011 38.8504 70.4347 39.1043 71.2248L40.3175 74.7518H36.6497V74.7236Z" fill="#92278F"/>
<path d="M27.2262 74.6389H29.6808V78.2788C29.314 78.4481 28.6087 78.6174 27.5648 78.6174C24.7152 78.6174 22.8531 76.7833 22.8531 73.6796C22.8531 70.6322 24.7998 68.7699 27.7623 68.7699C29.0037 68.7699 29.8219 68.9957 30.4708 69.3061L30.8658 68.0081C30.3297 67.7542 29.2294 67.4438 27.7905 67.4438C23.6995 67.4438 21.1885 70.0961 21.1885 73.736C21.1885 75.6265 21.8374 77.263 22.8813 78.2788C24.0663 79.4074 25.5898 79.8871 27.4519 79.8871C29.0883 79.8871 30.5272 79.4921 31.2326 79.2099V73.3692H27.2262V74.6389Z" fill="#92278F"/>
<path d="M13.6554 67.3874C10.3826 67.3874 8.0127 69.9268 8.0127 73.7925C8.0127 77.4888 10.2698 80 13.5144 80H13.5426C16.6461 80 19.1853 77.7427 19.1853 73.5667C19.1571 69.9268 17.0129 67.3874 13.6554 67.3874ZM13.599 78.7021C11.088 78.7021 9.6773 76.3319 9.6773 73.7642C9.6773 71.1119 10.9751 68.6853 13.599 68.6853C16.2229 68.6853 17.4925 71.2248 17.4925 73.6514C17.4925 76.4166 16.0818 78.7021 13.599 78.7021Z" fill="#92278F"/>
<path d="M16.2512 64.7633H14.3327L12.6399 66.8795H13.9377L16.2512 64.7633Z" fill="#92278F"/>
<path d="M3.78064 75.6265C3.78064 78.0249 2.96244 78.6457 1.55175 78.6457C1.01569 78.6457 0.53606 78.5328 0.197496 78.4199L0 79.6897C0.366778 79.859 1.10033 79.9718 1.69282 79.9718C3.78064 79.9718 5.38882 78.9843 5.38882 75.7394V67.5567H3.78064V75.6265Z" fill="#92278F"/>
</svg>
