<?xml version="1.0" encoding="utf-8"?>
<!-- Generator: Adobe Illustrator 22.0.1, SVG Export Plug-In . SVG Version: 6.00 Build 0)  -->
<svg version="1.1" id="Layer_1" xmlns="http://www.w3.org/2000/svg" xmlns:xlink="http://www.w3.org/1999/xlink" x="0px" y="0px"
	 viewBox="0 0 20 20" style="enable-background:new 0 0 20 20;" xml:space="preserve">
<style type="text/css">
	.st0{fill:#222222;}
</style>
<path class="st0" d="M14.3,13.1l5.7,5.7L18.9,20l-5.7-5.7C9.9,17,5,16.7,2.1,13.5c-2.9-3.2-2.8-8,0.2-11.1c3-3.1,7.9-3.2,11.1-0.4
	C16.6,4.9,17,9.8,14.3,13.1z M3.6,3.5C1.1,6,1.1,10,3.4,12.6c2.6,2.4,6.6,2.3,9-0.2c2.5-2.5,2.6-6.5,0.2-9.1C10.1,0.9,6.1,1,3.6,3.5
	z"/>
</svg>
