<svg width="182" height="140" viewBox="0 0 182 140" fill="none" xmlns="http://www.w3.org/2000/svg">
<path d="M26.4203 120.646C30.3296 120.646 33.4986 117.474 33.4986 113.562C33.4986 109.65 30.3296 106.479 26.4203 106.479C22.5111 106.479 19.342 109.65 19.342 113.562C19.342 117.474 22.5111 120.646 26.4203 120.646Z" stroke="#8C288C" stroke-width="3" stroke-miterlimit="10"/>
<path d="M26.4201 128.437C34.6294 128.437 41.2845 121.777 41.2845 113.562C41.2845 105.347 34.6294 98.687 26.4201 98.687C18.2107 98.687 11.5557 105.347 11.5557 113.562C11.5557 121.777 18.2107 128.437 26.4201 128.437Z" stroke="#8C288C" stroke-width="3" stroke-miterlimit="10"/>
<path d="M26.4201 138C39.9069 138 50.8402 127.059 50.8402 113.562C50.8402 100.066 39.9069 89.125 26.4201 89.125C12.9332 89.125 2 100.066 2 113.562C2 127.059 12.9332 138 26.4201 138Z" stroke="#8C288C" stroke-width="3" stroke-miterlimit="10"/>
<path d="M2 113.562V26.4375C2 12.9792 12.9713 2 26.4201 2C39.8688 2 50.8402 12.9792 50.8402 26.4375V113.562" stroke="#8C288C" stroke-width="3" stroke-miterlimit="10"/>
<path d="M50.84 38.8333H169.755C175.418 38.8333 180.019 43.4374 180.019 49.1041V127.729C180.019 133.396 175.418 138 169.755 138H26.4199" stroke="#8C288C" stroke-width="3" stroke-miterlimit="10"/>
<path d="M11.5557 32.4587V73.542" stroke="#8C288C" stroke-width="3" stroke-miterlimit="10"/>
<path d="M19.342 54.7708V73.1874" stroke="#8C288C" stroke-width="3" stroke-miterlimit="10"/>
<path d="M81.2769 129.854H141.088" stroke="#8C288C" stroke-width="3" stroke-miterlimit="10"/>
</svg>
