<svg width="85" height="139" viewBox="0 0 85 139" fill="none" xmlns="http://www.w3.org/2000/svg">
<path d="M48.5818 22.9706C48.5818 16.4944 53.2044 16.186 54.437 16.186C55.6697 16.186 60.2923 16.4944 60.2923 22.9706C60.2923 29.4468 60.2923 81.2564 60.2923 81.2564" stroke="#8C288C" stroke-width="3" stroke-miterlimit="10"/>
<path d="M36.5634 71.0794C36.5634 71.0794 36.5634 15.2608 36.5634 8.78459C36.5634 2.30839 42.4186 2 42.4186 2C42.4186 2 48.2739 2.30839 48.2739 8.78459C48.2739 15.2608 48.2739 71.0794 48.2739 71.0794" stroke="#8C288C" stroke-width="3" stroke-miterlimit="10"/>
<path d="M36.5632 22.9706C36.5632 16.4944 31.9406 16.186 30.7079 16.186C29.4752 16.186 24.8527 16.4944 24.8527 22.9706C24.8527 29.4468 24.8527 81.2564 24.8527 81.2564" stroke="#8C288C" stroke-width="3" stroke-miterlimit="10"/>
<path d="M24.5445 59.9771C24.5445 59.9771 21.4628 46.408 11.2932 46.408C2.66438 46.408 1.73987 50.417 1.73987 51.959C1.73987 58.1268 11.6013 51.3422 11.6013 63.6778C11.6013 73.5463 11.6013 110.245 11.6013 117.029C11.6013 123.814 14.9912 126.589 28.5507 126.589C42.1103 126.589 42.4184 138 42.4184 138C42.4184 138 42.4184 126.589 56.2861 126.589C70.1538 126.589 73.2355 123.814 73.2355 117.029C73.2355 110.245 73.2355 73.8547 73.2355 63.6778C73.2355 51.0338 83.097 58.1268 83.097 51.959C83.097 50.417 82.1725 46.408 73.5437 46.408C63.0659 46.408 60.2924 59.9771 60.2924 59.9771" stroke="#8C288C" stroke-width="3" stroke-miterlimit="10"/>
</svg>
