<svg width="139" height="140" viewBox="0 0 139 140" fill="none" xmlns="http://www.w3.org/2000/svg">
<path d="M69.5443 137.653C106.848 137.653 137.089 107.209 137.089 69.6533C137.089 32.098 106.848 1.65332 69.5443 1.65332C32.2406 1.65332 2 32.098 2 69.6533C2 107.209 32.2406 137.653 69.5443 137.653Z" stroke="#8C288C" stroke-width="3" stroke-miterlimit="10"/>
<path d="M69.5443 74.3322C63.0377 74.3322 54.6721 67.4698 54.6721 59.6717C54.6721 51.8735 69.5443 23.488 69.5443 23.488C69.5443 23.488 84.4164 51.5615 84.4164 59.6717C84.4164 67.7818 76.0508 74.3322 69.5443 74.3322Z" stroke="#8C288C" stroke-width="3" stroke-miterlimit="10"/>
<path d="M101.148 74.3324C97.4298 74.3324 92.7822 70.5892 92.7822 66.2221C92.7822 61.855 101.148 46.2583 101.148 46.2583C101.148 46.2583 109.513 61.855 109.513 66.2221C109.513 70.5892 104.866 74.3324 101.148 74.3324Z" stroke="#8C288C" stroke-width="3" stroke-miterlimit="10"/>
<path d="M35.7721 74.3324C32.054 74.3324 27.4065 70.5892 27.4065 66.2221C27.4065 61.855 35.7721 46.2583 35.7721 46.2583C35.7721 46.2583 44.1376 61.855 44.1376 66.2221C44.1376 70.5892 39.4901 74.3324 35.7721 74.3324Z" stroke="#8C288C" stroke-width="3" stroke-miterlimit="10"/>
<path d="M134.61 87.7456C134.61 87.7456 133.99 87.7456 130.892 87.7456C127.793 87.7456 113.541 99.9105 103.006 99.9105C92.7819 99.9105 83.7966 87.7456 69.2343 87.7456C54.672 87.7456 46.3064 99.9105 35.772 99.9105C25.2376 99.9105 10.9851 87.7456 7.88674 87.7456C4.78837 87.7456 4.1687 87.7456 4.1687 87.7456" stroke="#8C288C" stroke-width="3" stroke-miterlimit="10"/>
<path d="M131.202 98.6631C128.103 98.6631 113.851 110.828 103.316 110.828C93.0916 110.828 84.1064 98.6631 69.5441 98.6631C54.9817 98.6631 46.3063 110.828 35.7719 110.828C25.2374 110.828 10.985 98.6631 7.8866 98.6631" stroke="#8C288C" stroke-width="3" stroke-miterlimit="10"/>
<path d="M117.259 117.69C112.612 120.185 107.654 122.369 103.317 122.369C93.0922 122.369 84.1069 110.204 69.5446 110.204C54.9823 110.204 46.3069 122.369 35.7724 122.369C31.1249 122.369 25.8577 119.873 20.9003 117.378" stroke="#8C288C" stroke-width="3" stroke-miterlimit="10"/>
</svg>
