<svg width="133" height="140" viewBox="0 0 133 140" fill="none" xmlns="http://www.w3.org/2000/svg">
<path d="M2 58.2271H117.535C117.535 58.2271 115.428 138 59.9433 138C4.4582 138 2 58.2271 2 58.2271Z" stroke="#8C288C" stroke-width="3" stroke-miterlimit="10"/>
<path d="M102.084 113.401H119.993C126.315 113.401 131.231 108.481 131.231 102.155V84.9354C131.231 78.6098 126.315 73.6899 119.993 73.6899H116.131" stroke="#8C288C" stroke-width="3" stroke-miterlimit="10"/>
<path d="M79.609 52.9561C79.609 47.3334 75.0438 42.7649 69.425 42.7649H55.3782H41.3313C35.7126 42.7649 31.1473 38.1965 31.1473 32.5737C31.1473 26.951 35.7126 22.3825 41.3313 22.3825H51.1641H91.9C97.5187 22.3825 102.084 17.814 102.084 12.1913C102.084 6.56851 97.5187 2 91.9 2H10.4282" stroke="#8C288C" stroke-width="3" stroke-miterlimit="10"/>
<path d="M99.6256 72.9867C99.6256 72.9867 100.679 92.6662 89.0905 102.857C77.5018 113.049 65.562 116.563 51.5151 114.454C51.5151 100.397 56.4315 88.8006 68.3714 78.9608C80.3112 69.121 99.6256 72.9867 99.6256 72.9867Z" stroke="#8C288C" stroke-width="3" stroke-miterlimit="10"/>
<path d="M99.6256 72.9878L51.5151 114.807" stroke="#8C288C" stroke-width="3" stroke-miterlimit="10"/>
<path d="M20.612 75.7988C20.612 75.7988 17.1003 90.9099 24.4749 100.398C31.8495 109.887 40.6288 114.455 51.8663 114.807C53.9733 103.913 51.8663 94.0728 44.1405 84.9358C36.4147 75.7988 20.612 75.7988 20.612 75.7988Z" stroke="#8C288C" stroke-width="3" stroke-miterlimit="10"/>
<path d="M20.6123 75.7988L51.5154 114.807" stroke="#8C288C" stroke-width="3" stroke-miterlimit="10"/>
<path d="M84.1743 72.9878V86.3418L97.87 88.4503" stroke="#8C288C" stroke-width="3" stroke-miterlimit="10"/>
<path d="M72.2341 76.502L72.9365 96.1816L93.3044 98.2901" stroke="#8C288C" stroke-width="3" stroke-miterlimit="10"/>
<path d="M61.3479 86.3413L62.0502 105.669L82.7694 108.129" stroke="#8C288C" stroke-width="3" stroke-miterlimit="10"/>
<path d="M47.301 89.8555L43.4381 104.615L29.7424 106.372" stroke="#8C288C" stroke-width="3" stroke-miterlimit="10"/>
<path d="M37.4683 80.7183L36.0636 95.4779H21.3145" stroke="#8C288C" stroke-width="3" stroke-miterlimit="10"/>
</svg>
